<?xml version="1.0" encoding="utf-8"?>
<!-- Generator: Adobe Illustrator 21.1.0, SVG Export Plug-In . SVG Version: 6.00 Build 0)  -->
<svg version="1.1" id="Слой_1" xmlns="http://www.w3.org/2000/svg" xmlns:xlink="http://www.w3.org/1999/xlink" x="0px" y="0px"
	 viewBox="0 0 16 16" style="enable-background:new 0 0 16 16;" xml:space="preserve">
<style type="text/css">
	.st0{fill:#E52521;}
</style>
<g id="Layer_2">
	<path class="st0" d="M8,0C3.6,0,0,3.6,0,8s3.6,8,8,8s8-3.6,8-8S12.4,0,8,0z M12.3,12.2c-0.3,0.3-0.9,0.3-1.2,0L8,9.2l-3.1,3.1
		c-0.3,0.3-0.9,0.3-1.2,0s-0.3-0.9,0-1.2L6.8,8L3.7,5c-0.3-0.3-0.3-0.9,0-1.2s0.9-0.3,1.2,0L8,6.8L11,3.7c0.3-0.3,0.9-0.3,1.2,0l0,0
		c0.3,0.3,0.3,0.9,0,1.2L9.2,8l3.1,3C12.6,11.4,12.6,11.9,12.3,12.2z"/>
</g>
</svg>
