<?xml version="1.0" encoding="utf-8"?>
<!-- Generator: Adobe Illustrator 21.0.2, SVG Export Plug-In . SVG Version: 6.00 Build 0)  -->
<svg version="1.1" xmlns="http://www.w3.org/2000/svg" xmlns:xlink="http://www.w3.org/1999/xlink" x="0px" y="0px"
	 viewBox="0 0 20 20" style="enable-background:new 0 0 20 20;" xml:space="preserve">
<style type="text/css">
	.st1{fill:#000;}
	.st2{display:inline;fill:#000;}
</style>
<g id="Layer_2">
	<path class="st1" d="M8.6,0C3.8,0,0,3.8,0,8.6c0,4.7,3.8,8.6,8.6,8.6s8.6-3.8,8.6-8.6C17.2,3.8,13.3,0,8.6,0z M8.6,15.3
		c-3.7,0-6.7-3-6.7-6.7s3-6.7,6.7-6.7s6.7,3,6.7,6.7S12.3,15.3,8.6,15.3z"/>
</g>
<g id="Layer_3">
	<path class="st1" d="M19.8,18.9l-0.9,0.9c-0.3,0.3-0.8,0.3-1.1,0l-4.7-4.7c-0.3-0.3-0.3-0.8,0-1.1l0.9-0.9c0.3-0.3,0.8-0.3,1.1,0
		l4.7,4.7C20.1,18.2,20.1,18.7,19.8,18.9z"/>
</g>
<g id="Layer_4" class="st0">
	<path class="st2" d="M11.7,4.2l-1.1,1.2c1.1,0.7,1.8,1.9,1.8,3.2c0,2.1-1.7,3.8-3.8,3.8c-0.2,0-0.4,0-0.5-0.1V14c0.2,0,0.4,0,0.5,0
		c3,0,5.4-2.4,5.4-5.4C14,6.8,13.1,5.1,11.7,4.2z"/>
</g>
<g id="Layer_5">
	<path class="st1" d="M11.7,4.2c-0.4-0.3-1.4,1-1.1,1.2c1.1,0.7,1.8,1.9,1.8,3.2c0,2.1-1.7,3.8-3.8,3.8c-0.2,0-0.2,0-0.5,0
		c-0.4,0-0.5,1.6,0,1.6s0.4,0,0.5,0c3,0,5.4-2.4,5.4-5.4C14,6.8,13.1,5.2,11.7,4.2z"/>
</g>
</svg>
