<?xml version="1.0" encoding="utf-8"?>
<!-- Generator: Adobe Illustrator 21.0.0, SVG Export Plug-In . SVG Version: 6.00 Build 0)  -->
<svg version="1.1" xmlns="http://www.w3.org/2000/svg" xmlns:xlink="http://www.w3.org/1999/xlink" x="0px" y="0px"
	 viewBox="0 0 64 64" style="enable-background:new 0 0 64 64;" xml:space="preserve">
<style type="text/css">
	.settings{fill:#000;}
</style>
<g id="Layer_1">
	<path class="settings" d="M53.7,41.9c1.7-4,5.9-6.1,10-5.3c0.2-1.5,0.3-3,0.3-4.6c0-0.9,0-1.9-0.1-2.8c-4.1,0.8-8.4-1.4-10-5.5
		c-1.7-4.1,0-8.8,3.7-11c-1.5-2-3.3-3.9-5.3-5.5c-2.3,3.7-7,5.4-11.1,3.6c-4.2-1.8-6.3-6.3-5.2-10.6C34.6,0.1,33.3,0,32,0
		c-1.3,0-2.5,0.1-3.8,0.2c1.1,4.3-1.1,8.8-5.3,10.6c-4.2,1.7-8.9,0.1-11.1-3.7c-2,1.6-3.7,3.4-5.3,5.4c3.7,2.3,5.3,6.9,3.6,11.1
		c-1.7,4-5.9,6.2-10,5.4C0.1,30,0,31,0,32c0,1.5,0.1,3,0.3,4.5c4.1-0.8,8.3,1.3,10,5.3c1.7,3.9,0.3,8.3-2.9,10.7
		c1.6,1.9,3.3,3.6,5.3,5c2.4-3.2,6.7-4.6,10.6-3c3.8,1.5,6,5.4,5.6,9.4c1,0.1,2.1,0.2,3.1,0.2c1,0,2-0.1,3-0.1
		c-0.4-3.9,1.8-7.8,5.6-9.3c3.9-1.5,8.2-0.2,10.6,3.1c1.9-1.5,3.7-3.1,5.3-5C53.3,50.1,52,45.7,53.7,41.9z M32,45.3
		c-7.4,0-13.3-6-13.3-13.3s6-13.3,13.3-13.3s13.3,6,13.3,13.3S39.4,45.3,32,45.3z"/>
</g>
</svg>
